#!OML:ASF E:\Steps\Project 1\Capture day 1\Session 2\Subject.ASF
:FULLY-SPECIFIED
:DEGREES
1
root 9.40369 16.3388 9.43442 -151.187 -3.73844 -179.571
lowerback -30.0616 -1.68807 -5.14779
upperback -3.01707 -1.46873 -0.188384
thorax 12.4796 -1.33188 1.93743
lowerneck 0.429349 0.0747014 -4.01545
upperneck 8.72022 -0.758756 7.00897
head 2.78808 -0.480854 2.99451
rclavicle 5.56597e-015 1.27222e-014
rhumerus -35.4094 -21.2545 -79.222
rradius 26.8818
rwrist 2.76603
rhand -7.79223 -50.6183
rfingers 7.12502
rthumb 18.1087 -79.7953
lclavicle 5.56597e-015 1.27222e-014
lhumerus -29.4446 6.74868 81.1875
lradius 19.3047
lwrist -8.31563
lhand -21.1974 -12.0078
lfingers 7.12502
lthumb 5.18378 17.9088
rfemur -26.4827 7.83841 18.4491
rtibia 6.03308
rfoot -17.6211 -7.73528
rtoes -34.1842
lfemur -26.9689 -9.53066 -16.0375
ltibia 7.314
lfoot -7.87263 4.75957
ltoes -40.6301
2
root 9.40431 16.3444 9.43512 -151.358 -3.82787 -179.64
lowerback -29.852 -1.75525 -5.20542
upperback -2.95752 -1.52725 -0.176528
thorax 12.4612 -1.35304 1.96536
lowerneck 0.39047 0.076048 -4.05242
upperneck 8.70763 -0.752383 7.02059
head 2.79123 -0.476771 3.0058
rclavicle -1.13307e-014 -1.19271e-014
rhumerus -35.3292 -21.1886 -79.2435
rradius 26.844
rwrist 2.78281
rhand -7.77833 -50.5866
rfingers 7.12502
rthumb 18.1221 -79.7624
lclavicle -1.13307e-014 -1.19271e-014
lhumerus -29.377 6.90874 81.1604
lradius 19.287
lwrist -8.3589
lhand -21.051 -11.9721
lfingers 7.12502
lthumb 5.32513 17.941
rfemur -26.2503 7.87426 18.3827
rtibia 5.97247
rfoot -17.6436 -7.86452
rtoes -33.9841
lfemur -26.7977 -9.62818 -16.1233
ltibia 7.3453
lfoot -7.89621 4.70298
ltoes -40.3675
3
root 9.40237 16.3393 9.4335 -151.238 -3.75142 -179.618
lowerback -29.999 -1.73938 -5.16828
upperback -2.9564 -1.51951 -0.15592
thorax 12.5266 -1.35193 1.96587
lowerneck 0.328142 0.0817855 -4.10718
upperneck 8.72077 -0.740148 7.02609
head 2.80718 -0.470042 3.01907
rclavicle 6.95746e-016 -9.54166e-015
rhumerus -35.2409 -21.09 -79.2592
rradius 26.8069
rwrist 2.72942
rhand -7.78459 -50.516
rfingers 7.12502
rthumb 18.1161 -79.6924
lclavicle 6.95746e-016 -9.54166e-015
lhumerus -29.3546 7.11694 81.1324
lradius 19.2649
lwrist -8.44647
lhand -21.0312 -11.9428
lfingers 7.12502
lthumb 5.3442 17.9698
rfemur -26.4363 7.87262 18.3761
rtibia 6.05329
rfoot -17.6665 -7.74881
rtoes -33.9213
lfemur -26.9111 -9.67451 -16.0723
ltibia 7.37369
lfoot -8.01709 4.801
ltoes -39.8338
4
root 9.40052 16.3374 9.43204 -151.205 -3.69895 -179.646
lowerback -30.0273 -1.71244 -5.20017
upperback -2.98862 -1.47786 -0.187283
thorax 12.4982 -1.33663 1.96432
lowerneck 0.370764 0.0789733 -4.06657
upperneck 8.72039 -0.747757 7.01833
head 2.79904 -0.474427 3.00815
rclavicle -1.78906e-015 0
rhumerus -35.3306 -21.2753 -79.1742
rradius 26.7914
rwrist 2.89475
rhand -7.74505 -50.5234
rfingers 7.12502
rthumb 18.1541 -79.6962
lclavicle -1.78906e-015 0
lhumerus -29.4399 7.04932 81.1234
lradius 19.2978
lwrist -8.43064
lhand -21.0427 -11.8708
lfingers 7.12502
lthumb 5.33311 18.042
rfemur -26.4836 7.69273 18.3763
rtibia 6.08516
rfoot -17.642 -7.63999
rtoes -34.1382
lfemur -26.9103 -9.75066 -16.0908
ltibia 7.33273
lfoot -8.07564 4.88453
ltoes -39.5296
5
root 9.39973 16.3369 9.43099 -151.19 -3.684 -179.646
lowerback -30.0354 -1.70237 -5.20536
upperback -2.99967 -1.46475 -0.19447
thorax 12.4879 -1.3316 1.96415
lowerneck 0.3838 0.0774272 -4.05556
upperneck 8.71832 -0.751048 7.01907
head 2.79601 -0.476198 3.00612
rclavicle 1.2921e-014 7.95139e-016
rhumerus -35.367 -21.5318 -79.0681
rradius 26.7511
rwrist 3.16934
rhand -7.73665 -50.4541
rfingers 7.12502
rthumb 18.1622 -79.6262
lclavicle 1.2921e-014 7.95139e-016
lhumerus -29.4985 7.02053 81.1332
lradius 19.3751
lwrist -8.37178
lhand -20.8932 -11.9487
lfingers 7.12502
lthumb 5.47747 17.9605
rfemur -26.5011 7.55332 18.4097
rtibia 6.0955
rfoot -17.642 -7.50591
rtoes -34.414
lfemur -26.9063 -9.76769 -16.0912
ltibia 7.31147
lfoot -8.06877 4.89703
ltoes -39.6903
6
root 9.39996 16.3383 9.43059 -151.196 -3.72043 -179.611
lowerback -30.004 -1.71277 -5.15149
upperback -2.9974 -1.49793 -0.172385
thorax 12.4797 -1.34321 1.94721
lowerneck 0.347962 0.0772267 -4.10736
upperneck 8.7276 -0.748825 7.02854
head 2.8064 -0.47519 3.0197
rclavicle -1.88845e-015 -4.77083e-015
rhumerus -35.359 -21.4728 -79.1028
rradius 26.8583
rwrist 3.15485
rhand -7.83171 -50.3259
rfingers 7.12502
rthumb 18.0708 -79.5064
lclavicle -1.88845e-015 -4.77083e-015
lhumerus -29.5287 7.18626 81.0972
lradius 19.3966
lwrist -8.4467
lhand -20.8186 -12.0834
lfingers 7.12502
lthumb 5.54953 17.824
rfemur -26.4675 7.65837 18.4299
rtibia 6.03866
rfoot -17.6263 -7.55152
rtoes -34.471
lfemur -26.9303 -9.6162 -16.0901
ltibia 7.37831
lfoot -8.08536 4.75189
ltoes -39.9543
7
root 9.39941 16.3388 9.42904 -151.217 -3.70149 -179.577
lowerback -29.9927 -1.68414 -5.09713
upperback -3.00085 -1.47849 -0.179127
thorax 12.4688 -1.3314 1.91847
lowerneck 0.341188 0.0736242 -4.10924
upperneck 8.73078 -0.753485 7.02837
head 2.80907 -0.477378 3.02001
rclavicle 1.2424e-014 6.59965e-014
rhumerus -35.4251 -21.3306 -79.1794
rradius 27.0514
rwrist 3.02172
rhand -7.82414 -50.4314
rfingers 7.12502
rthumb 18.078 -79.6112
lclavicle 1.2424e-014 6.59965e-014
lhumerus -29.5467 7.20452 81.061
lradius 19.3442
lwrist -8.48909
lhand -20.939 -11.9719
lfingers 7.12502
lthumb 5.43325 17.9385
rfemur -26.4257 7.74063 18.4541
rtibia 6.01528
rfoot -17.6066 -7.6377
rtoes -34.637
lfemur -26.894 -9.48061 -16.1055
ltibia 7.36093
lfoot -8.07456 4.70996
ltoes -40.1999
8
root 9.39895 16.3392 9.42971 -151.195 -3.70549 -179.591
lowerback -30.0052 -1.69574 -5.09949
upperback -2.97991 -1.48892 -0.170266
thorax 12.4992 -1.33571 1.9249
lowerneck 0.268511 0.0767248 -4.11309
upperneck 8.73547 -0.744054 7.0243
head 2.82357 -0.47034 3.02022
rclavicle 4.07509e-015 -3.02153e-014
rhumerus -35.3363 -21.2676 -79.2158
rradius 27.105
rwrist 2.99683
rhand -7.39165 -50.8316
rfingers 7.12502
rthumb 18.4941 -79.9724
lclavicle 4.07509e-015 -3.02153e-014
lhumerus -29.451 7.08115 81.114
lradius 19.3165
lwrist -8.35394
lhand -20.9925 -11.8001
lfingers 7.12502
lthumb 5.38155 18.1116
rfemur -26.4677 7.78923 18.4102
rtibia 6.05685
rfoot -17.6111 -7.75217
rtoes -34.6349
lfemur -26.9022 -9.52005 -16.1099
ltibia 7.27474
lfoot -8.00001 4.77288
ltoes -40.6423
9
root 9.39839 16.3401 9.42791 -151.202 -3.6852 -179.603
lowerback -30.0243 -1.69512 -5.11288
upperback -2.95896 -1.47857 -0.173443
thorax 12.5307 -1.33121 1.93205
lowerneck 0.258011 0.0823323 -4.11237
upperneck 8.73835 -0.735379 7.01829
head 2.82584 -0.465754 3.01832
rclavicle 2.68359e-015 3.18055e-015
rhumerus -35.2436 -21.2715 -79.2255
rradius 27.0753
rwrist 3.01221
rhand -7.12385 -50.9838
rfingers 7.12502
rthumb 18.7517 -80.0999
lclavicle 2.68359e-015 3.18055e-015
lhumerus -29.4082 6.97411 81.153
lradius 19.3394
lwrist -8.24578
lhand -20.9861 -11.8627
lfingers 7.12502
lthumb 5.38772 18.0488
rfemur -26.4673 7.84948 18.3661
rtibia 6.05382
rfoot -17.5953 -7.80921
rtoes -34.487
lfemur -26.8706 -9.57086 -16.1152
ltibia 7.16884
lfoot -7.92031 4.8317
ltoes -40.6709
10
root 9.39895 16.3417 9.42763 -151.224 -3.68874 -179.628
lowerback -29.9981 -1.70519 -5.16187
upperback -2.96316 -1.47635 -0.178836
thorax 12.5145 -1.33212 1.95428
lowerneck 0.301486 0.0865382 -4.10472
upperneck 8.73804 -0.73224 7.01138
head 2.81724 -0.46561 3.01416
rclavicle -1.42131e-014 -5.56597e-015
rhumerus -35.2375 -21.2697 -79.249
rradius 27.1135
rwrist 3.01577
rhand -7.107 -51.0349
rfingers 7.12502
rthumb 18.7679 -80.1495
lclavicle -1.42131e-014 -5.56597e-015
lhumerus -29.4257 6.93822 81.1611
lradius 19.3375
lwrist -8.18526
lhand -21.1409 -11.9499
lfingers 7.12502
lthumb 5.23829 17.9653
rfemur -26.4354 7.77156 18.3722
rtibia 6.02469
rfoot -17.5701 -7.75157
rtoes -34.7547
lfemur -26.863 -9.64029 -16.1229
ltibia 7.165
lfoot -7.89461 4.88381
ltoes -40.4873
